<svg xmlns="http://www.w3.org/2000/svg" width="1180" height="780">
  <path d="M0 0v380h380V0H0zm400 0v380h380V0H400zm400 0v380h380V0H800zM0 400v380h380V400H0zm400 0v380h380V400H400zm400 0v380h380V400H800z"/>
  <path fill="#fff" d="M588 66a78 78 0 0 0-52 19c-6 6-12 13-15 21-4 8-6 17-6 26 0 16 4 29 11 38 8 10 18 18 32 24a407 407 0 0 0 50 20c10 4 18 11 24 19a52 52 0 0 1 5 44c-2 5-4 10-8 13-3 4-8 7-14 9s-13 3-20 3a61 61 0 0 1-48-22c-6-7-11-15-15-23l-10-27h-14l3 82h13l7-12a127 127 0 0 0 60 17c24 0 43-7 59-21 15-14 23-31 23-52 0-9-1-17-4-24-2-7-6-13-11-18-4-5-10-10-16-13l-20-10-23-10-24-10a44 44 0 0 1-28-43c0-9 3-18 11-25 7-7 17-10 27-10a52 52 0 0 1 44 21c5 7 9 15 12 23l8 26h14l-1-79h-14l-7 11-24-12c-9-3-18-5-29-5zm-403 2a116956 116956 0 0 0-86 216l-11 10-11 4-11 2v12h91v-12c-9-1-17-2-24-5-7-2-11-6-11-10l1-8 3-11a2170 2170 0 0 1 13-37h84l20 54 1 3v4c0 3-3 5-8 6l-22 4v12h100v-12a55 55 0 0 1-21-6l-9-8-6-11-80-207h-13zm708 4v12a82 82 0 0 1 22 5c4 2 7 4 8 7l2 10v173l-2 10c-2 3-4 5-8 7l-11 2-12 2v12h114c10 0 20-2 29-4 10-3 19-7 26-12a56 56 0 0 0 26-49 53 53 0 0 0-24-47 122 122 0 0 0-46-16v-2l22-7c7-3 13-7 18-11a50 50 0 0 0 17-40 45 45 0 0 0-23-41c-7-4-14-7-22-9s-16-2-25-2H893zm95 13c16 0 27 4 35 11 7 8 10 18 10 31 0 8 0 15-2 21s-5 11-9 16c-4 4-9 8-16 10-6 3-14 4-24 4h-21V86a1491 1491 0 0 1 27-1zm-807 36 36 93h-72l36-93zm809 71c18 0 32 4 41 13 10 9 15 21 15 35 0 19-5 34-14 44s-22 14-38 14c-11 0-19-1-24-5-6-4-9-9-9-16v-85a539 539 0 0 1 29 0zM589 466a114 114 0 0 0-81 34c-10 11-19 24-25 40-6 15-9 32-9 52 0 18 3 35 9 50 6 16 14 29 24 40a109 109 0 0 0 82 36 113 113 0 0 0 107-74c6-16 9-33 9-52s-3-36-9-52-14-29-25-40c-10-11-22-19-36-25-15-6-30-9-46-9zm409 0a121 121 0 0 0-86 36c-11 12-20 25-26 41-6 15-9 32-9 51s3 36 9 51c7 15 15 28 26 39s23 19 37 25c15 5 29 8 45 8 14 0 29-1 43-5 15-4 30-9 45-16a459 459 0 0 1-1-39v-18c0-5 1-8 3-11 1-3 3-6 7-7a262 262 0 0 1 22-5v-13h-105v13a200 200 0 0 1 30 5c4 2 6 5 8 8l2 13v13a828 828 0 0 1-2 33c-3 3-9 7-17 10s-17 4-27 4a73 73 0 0 1-62-32c-7-10-13-21-16-35a182 182 0 0 1 0-90c3-14 9-26 16-35 7-10 15-17 24-22 10-5 21-7 33-7a59 59 0 0 1 48 23c6 7 10 15 14 24l9 28h14l-2-84h-13l-7 11c-8-5-17-8-27-12-10-3-22-5-35-5zm-897 6v12l12 2 11 4c4 2 6 4 8 7l2 10v172c0 5-1 8-3 11-1 3-4 5-7 6l-11 3-12 1v12h188l5-72h-12c-2 7-6 15-13 26-6 11-11 18-16 24l-7 4-11 3a112 112 0 0 1-26 2l-22-1-11-4c-3-3-5-6-5-10l-1-17V505c0-3 0-7 2-10 1-3 4-6 8-7a92 92 0 0 1 23-4v-12H101zm488 9a63 63 0 0 1 56 30c6 10 11 22 14 36a196 196 0 0 1-13 123 64 64 0 0 1-56 32c-13 0-24-2-34-8-9-5-17-13-23-23s-11-22-14-35a202 202 0 0 1 13-121c6-10 13-19 23-25 9-6 21-9 34-9z" style="-inkscape-font-specification:Georgia"/>
</svg>
